<?xml version="1.0" encoding="UTF-8"?>
<!DOCTYPE svg PUBLIC "-//W3C//DTD SVG 1.1//EN" "http://www.w3.org/Graphics/SVG/1.1/DTD/svg11.dtd">
<svg xmlns="http://www.w3.org/2000/svg" version="1.1" width="1074px" height="1026px" style="shape-rendering:geometricPrecision; text-rendering:geometricPrecision; image-rendering:optimizeQuality; fill-rule:evenodd; clip-rule:evenodd" xmlns:xlink="http://www.w3.org/1999/xlink">
<g><path style="opacity:1" fill="#fefefe" d="M -0.5,-0.5 C 357.5,-0.5 715.5,-0.5 1073.5,-0.5C 1073.5,341.5 1073.5,683.5 1073.5,1025.5C 715.5,1025.5 357.5,1025.5 -0.5,1025.5C -0.5,683.5 -0.5,341.5 -0.5,-0.5 Z"/></g>
<g><path style="opacity:1" fill="#da3c27" d="M 520.5,56.5 C 670.422,53.229 792.589,109.229 887,224.5C 970.046,335.746 996.379,459.413 966,595.5C 930.328,728.489 850.828,825.322 727.5,886C 617.683,934.753 506.016,939.42 392.5,900C 263.559,849.059 176.059,758.226 130,627.5C 87.2652,486.224 107.932,355.224 192,234.5C 260.176,144.093 350.009,87.2594 461.5,64C 481.202,60.5792 500.869,58.0792 520.5,56.5 Z"/></g>
<g><path style="opacity:1" fill="#fefefe" d="M 517.5,92.5 C 664.109,88.3987 781.275,144.399 869,260.5C 945.603,374.064 962.27,496.064 919,626.5C 875.779,740.388 797.612,819.888 684.5,865C 567.032,906.792 453.699,897.792 344.5,838C 234.666,771.595 169.166,674.761 148,547.5C 132.443,410.816 173.61,294.649 271.5,199C 341.289,135.883 423.289,100.383 517.5,92.5 Z"/></g>
<g><path style="opacity:1" fill="#da3b26" d="M 365.5,273.5 C 425.083,331.583 484.25,390.249 543,449.5C 601.5,391 660,332.5 718.5,274C 719.5,273.333 720.5,273.333 721.5,274C 734.667,287.167 747.833,300.333 761,313.5C 761.667,314.167 761.667,314.833 761,315.5C 702.32,374.014 643.82,432.68 585.5,491.5C 643.82,550.32 702.32,608.986 761,667.5C 761.667,668.167 761.667,668.833 761,669.5C 747.333,683.167 733.667,696.833 720,710.5C 661.294,651.46 602.294,592.793 543,534.5C 484.206,592.293 425.706,650.46 367.5,709C 366.833,709.667 366.167,709.667 365.5,709C 352.333,695.833 339.167,682.667 326,669.5C 325.333,668.833 325.333,668.167 326,667.5C 384.594,609.24 442.761,550.74 500.5,492C 442.207,432.706 383.54,373.706 324.5,315C 338.369,301.299 352.035,287.465 365.5,273.5 Z"/></g>
</svg>
