<?xml version="1.0" encoding="UTF-8"?>
<!DOCTYPE svg PUBLIC "-//W3C//DTD SVG 1.1//EN" "http://www.w3.org/Graphics/SVG/1.1/DTD/svg11.dtd">
<svg xmlns="http://www.w3.org/2000/svg" version="1.1" width="600px" height="600px" style="shape-rendering:geometricPrecision; text-rendering:geometricPrecision; image-rendering:optimizeQuality; fill-rule:evenodd; clip-rule:evenodd" xmlns:xlink="http://www.w3.org/1999/xlink">
<g><path style="opacity:1" fill="#fffefe" d="M -0.5,-0.5 C 199.5,-0.5 399.5,-0.5 599.5,-0.5C 599.5,199.5 599.5,399.5 599.5,599.5C 399.5,599.5 199.5,599.5 -0.5,599.5C -0.5,399.5 -0.5,199.5 -0.5,-0.5 Z"/></g>
<g><path style="opacity:1" fill="#fed44a" d="M 278.5,19.5 C 394.177,15.5745 482.011,62.5745 542,160.5C 579.014,228.974 586.681,300.641 565,375.5C 539.218,456.227 487.718,514.06 410.5,549C 319.698,585.324 232.698,577.99 149.5,527C 78.4846,478.529 37.3179,411.363 26,325.5C 17.8918,228.597 50.0584,148.097 122.5,84C 167.939,46.7847 219.939,25.2847 278.5,19.5 Z"/></g>
<g><path style="opacity:1" fill="#fffefe" d="M 279.5,34.5 C 371.715,30.0448 447.215,63.0448 506,133.5C 560.719,207.118 575.052,288.118 549,376.5C 519.247,460.586 462.081,516.753 377.5,545C 280.733,571.275 195.066,551.275 120.5,485C 55.92,419.925 30.0867,341.758 43,250.5C 62.3092,157.203 115.476,91.3698 202.5,53C 227.434,43.1818 253.101,37.0151 279.5,34.5 Z"/></g>
<g><path style="opacity:1" fill="#fed447" d="M 292.5,101.5 C 319.997,97.8288 334.83,109.829 337,137.5C 337.667,152.833 337.667,168.167 337,183.5C 332.806,233.548 328.14,283.548 323,333.5C 321.502,340.668 318.835,347.334 315,353.5C 305.809,361.743 295.975,362.577 285.5,356C 281.488,351.143 278.654,345.643 277,339.5C 275.558,331.184 274.225,322.85 273,314.5C 269.61,259.488 266.11,204.488 262.5,149.5C 260.43,125.588 270.43,109.588 292.5,101.5 Z"/></g>
<g><path style="opacity:1" fill="#fed448" d="M 293.5,403.5 C 324.404,403.566 338.904,418.9 337,449.5C 332.735,465.741 322.235,475.241 305.5,478C 276.152,478.319 261.985,463.819 263,434.5C 267.349,418.319 277.516,407.985 293.5,403.5 Z"/></g>
</svg>
