<?xml version="1.0" encoding="UTF-8"?>
<!DOCTYPE svg PUBLIC "-//W3C//DTD SVG 1.1//EN" "http://www.w3.org/Graphics/SVG/1.1/DTD/svg11.dtd">
<svg xmlns="http://www.w3.org/2000/svg" version="1.1" width="600px" height="600px" style="shape-rendering:geometricPrecision; text-rendering:geometricPrecision; image-rendering:optimizeQuality; fill-rule:evenodd; clip-rule:evenodd" xmlns:xlink="http://www.w3.org/1999/xlink">
<g><path style="opacity:1" fill="#fefefe" d="M -0.5,-0.5 C 199.5,-0.5 399.5,-0.5 599.5,-0.5C 599.5,199.5 599.5,399.5 599.5,599.5C 399.5,599.5 199.5,599.5 -0.5,599.5C -0.5,399.5 -0.5,199.5 -0.5,-0.5 Z"/></g>
<g><path style="opacity:1" fill="#66d24d" d="M 277.5,12.5 C 383.885,8.28528 469.051,48.2853 533,132.5C 589.911,217.557 600.578,308.223 565,404.5C 531.654,482.847 475.154,537.013 395.5,567C 293.403,599.82 200.403,583.153 116.5,517C 41.121,450.25 7.62105,366.417 16,265.5C 31.9769,158.884 88.4769,82.3842 185.5,36C 215.077,23.4397 245.743,15.6064 277.5,12.5 Z"/></g>
<g><path style="opacity:1" fill="#fefefe" d="M 278.5,37.5 C 376.236,33.4614 454.402,70.1281 513,147.5C 562.848,221.767 573.514,301.434 545,386.5C 515.189,464.311 461.022,517.145 382.5,545C 292.791,572.058 210.791,557.391 136.5,501C 65.2733,440.052 33.4399,362.552 41,268.5C 56.1095,168.065 109.943,97.2318 202.5,56C 227.129,46.3418 252.462,40.1751 278.5,37.5 Z"/></g>
<g><path style="opacity:1" fill="#67d24e" d="M 471.5,160.5 C 479.798,168.298 487.965,176.298 496,184.5C 496.667,185.167 496.667,185.833 496,186.5C 412.92,268.913 330.586,351.913 249,435.5C 239.756,428.262 231.09,420.262 223,411.5C 222.667,410.5 222.333,409.5 222,408.5C 182.32,368.986 142.82,329.32 103.5,289.5C 111.486,281.014 119.652,272.681 128,264.5C 168,304.5 208,344.5 248,384.5C 322.701,309.965 397.201,235.299 471.5,160.5 Z"/></g>
</svg>
