<?xml version="1.0" encoding="UTF-8"?>
<!DOCTYPE svg PUBLIC "-//W3C//DTD SVG 1.1//EN" "http://www.w3.org/Graphics/SVG/1.1/DTD/svg11.dtd">
<svg xmlns="http://www.w3.org/2000/svg" version="1.1" width="1074px" height="1026px" style="shape-rendering:geometricPrecision; text-rendering:geometricPrecision; image-rendering:optimizeQuality; fill-rule:evenodd; clip-rule:evenodd" xmlns:xlink="http://www.w3.org/1999/xlink">
<g><path style="opacity:1" fill="#fefefe" d="M -0.5,-0.5 C 357.5,-0.5 715.5,-0.5 1073.5,-0.5C 1073.5,341.5 1073.5,683.5 1073.5,1025.5C 715.5,1025.5 357.5,1025.5 -0.5,1025.5C -0.5,683.5 -0.5,341.5 -0.5,-0.5 Z"/></g>
<g><path style="opacity:1" fill="#1e4d7c" d="M 516.5,74.5 C 668.009,70.0242 791.509,126.024 887,242.5C 970.038,353.727 996.371,477.394 966,613.5C 930.328,746.489 850.828,843.322 727.5,904C 624.04,950.556 518.04,957.223 409.5,924C 283.647,880.483 194.147,797.65 141,675.5C 91.2344,546.968 98.2344,421.635 162,299.5C 224.618,190.566 316.785,119.733 438.5,87C 464.334,81.025 490.334,76.8583 516.5,74.5 Z"/></g>
<g><path style="opacity:1" fill="#fefefe" d="M 517.5,110.5 C 664.114,106.402 781.281,162.402 869,278.5C 943.08,387.716 961.08,505.716 923,632.5C 881.738,752.428 802.238,835.928 684.5,883C 570.909,923.583 460.575,916.249 353.5,861C 246.297,800.083 179.13,709.249 152,588.5C 127.135,443.44 166.968,319.607 271.5,217C 341.306,153.879 423.306,118.379 517.5,110.5 Z"/></g>
<g><path style="opacity:1" fill="#060606" d="M 522.5,264.5 C 607.296,260.334 677.463,290 733,353.5C 786.049,421.749 801.049,497.749 778,581.5C 751.754,661.413 698.921,715.246 619.5,743C 533.513,768.23 455.513,753.23 385.5,698C 317.033,636.621 288.866,560.121 301,468.5C 316.221,391.324 357.721,333.157 425.5,294C 455.969,277.562 488.302,267.729 522.5,264.5 Z"/></g>
<g><path style="opacity:1" fill="#fefefe" d="M 519.5,276.5 C 620.825,271.402 697.325,312.069 749,398.5C 782.046,463.984 785.38,530.984 759,599.5C 718.762,686.684 650.595,734.517 554.5,743C 472.533,744.76 406.366,713.594 356,649.5C 311.907,586.688 299.574,518.021 319,443.5C 345.235,363.598 398.402,310.765 478.5,285C 492.128,281.309 505.795,278.475 519.5,276.5 Z"/></g>
<g><path style="opacity:1" fill="#000000" d="M 535.5,300.5 C 540.833,300.5 546.167,300.5 551.5,300.5C 551.5,379.167 551.5,457.833 551.5,536.5C 598.5,536.5 645.5,536.5 692.5,536.5C 692.5,541.833 692.5,547.167 692.5,552.5C 640.167,552.5 587.833,552.5 535.5,552.5C 535.5,468.5 535.5,384.5 535.5,300.5 Z"/></g>
</svg>
